<svg width="144" height="48" viewBox="0 0 144 48" fill="none" xmlns="http://www.w3.org/2000/svg">
<g clip-path="url(#clip0_1220_1161)">
<path d="M132.533 0.000156H11.4737C11.0325 0.000156 10.5965 0.000156 10.1564 0.002556C9.78796 0.004956 9.42249 0.011928 9.05054 0.017796C8.24249 0.0272782 7.43635 0.0981675 6.63911 0.229848C5.84299 0.364395 5.07181 0.618055 4.35165 0.982248C3.63237 1.34952 2.97514 1.82676 2.40381 2.39664C1.82948 2.96492 1.35074 3.62178 0.98598 4.34195C0.620217 5.06069 0.366595 5.83088 0.233875 6.62593C0.0998928 7.41998 0.0277959 8.22318 0.018231 9.02833C0.00706378 9.39625 0.00588447 9.7654 0 10.1334V37.8705C0.00588447 38.2431 0.00706378 38.604 0.018231 38.9768C0.0277988 39.7819 0.0998957 40.585 0.233875 41.379C0.366228 42.1746 0.619865 42.9452 0.98598 43.6642C1.35057 44.382 1.82939 45.0362 2.40381 45.6014C2.97298 46.1738 3.63063 46.6513 4.35165 47.0158C5.0718 47.381 5.8429 47.6361 6.63911 47.7728C7.43648 47.9034 8.24254 47.9743 9.05054 47.9849C9.42249 47.9931 9.78796 47.9978 10.1564 47.9978C10.5965 48.0002 11.0325 48.0002 11.4737 48.0002H132.533C132.965 48.0002 133.405 48.0002 133.837 47.9978C134.204 47.9978 134.58 47.9931 134.947 47.9849C135.753 47.9749 136.558 47.9039 137.353 47.7728C138.152 47.6352 138.926 47.3801 139.65 47.0158C140.37 46.6511 141.027 46.1736 141.596 45.6014C142.169 45.034 142.648 44.3803 143.018 43.6642C143.381 42.9447 143.632 42.1741 143.763 41.379C143.897 40.5849 143.971 39.7819 143.986 38.9768C143.991 38.604 143.991 38.2431 143.991 37.8705C144 37.4345 144 37.001 144 36.5579V11.4435C144 11.0041 144 10.5681 143.991 10.1334C143.991 9.7654 143.991 9.39625 143.986 9.02828C143.971 8.22306 143.897 7.42004 143.763 6.62588C143.632 5.83129 143.381 5.06116 143.018 4.3419C142.275 2.89839 141.097 1.72339 139.65 0.98214C138.926 0.618837 138.152 0.365245 137.353 0.22974C136.558 0.0974793 135.753 0.0265653 134.947 0.017628C134.58 0.011772 134.204 0.00474 133.837 0.0024C133.405 0 132.965 0 132.533 0V0.000156Z" fill="#A6A6A6"/>
<path d="M10.1624 46.9498C9.79583 46.9498 9.43804 46.9451 9.07428 46.9369C8.3207 46.9272 7.56889 46.8617 6.82501 46.7412C6.13138 46.6221 5.45943 46.4005 4.83134 46.0838C4.20901 45.7696 3.64139 45.3577 3.15024 44.8638C2.65197 44.3758 2.23714 43.8097 1.92219 43.188C1.60376 42.5623 1.38339 41.8917 1.26876 41.1994C1.14496 40.4555 1.07798 39.7034 1.0684 38.9494C1.06077 38.6963 1.05078 37.8537 1.05078 37.8537V10.133C1.05078 10.133 1.06142 9.30332 1.06846 9.05956C1.07763 8.30678 1.14422 7.55579 1.26765 6.81308C1.3825 6.1189 1.60304 5.4463 1.92163 4.81856C2.23543 4.19734 2.64796 3.63084 3.14322 3.14102C3.63793 2.64655 4.20736 2.23253 4.83075 1.91405C5.4574 1.59832 6.12807 1.37828 6.82031 1.26133C7.56663 1.13961 8.32105 1.0738 9.07724 1.06445L10.163 1.0498H133.831L134.93 1.06504C135.679 1.07392 136.427 1.13914 137.167 1.26015C137.866 1.37857 138.543 1.60014 139.177 1.91757C140.426 2.55939 141.442 3.5748 142.083 4.82149C142.397 5.4449 142.614 6.11201 142.727 6.80019C142.852 7.54899 142.922 8.30589 142.937 9.06484C142.94 9.40468 142.94 9.76972 142.94 10.133C142.95 10.583 142.95 11.0113 142.95 11.4431V36.5576C142.95 36.9935 142.95 37.4189 142.94 37.8478C142.94 38.238 142.94 38.5955 142.935 38.9634C142.921 39.7088 142.853 40.4522 142.73 41.1876C142.617 41.8849 142.398 42.5608 142.08 43.1916C141.763 43.8065 141.35 44.3677 140.858 44.8545C140.366 45.351 139.798 45.7653 139.174 46.0815C138.542 46.4007 137.865 46.6231 137.167 46.7412C136.423 46.8624 135.671 46.9278 134.917 46.9369C134.565 46.9451 134.196 46.9498 133.837 46.9498L132.533 46.9522L10.1624 46.9498Z" fill="white"/>
<path d="M29.8061 24.3608C29.8191 23.3592 30.0859 22.3771 30.5817 21.506C31.0775 20.6348 31.7862 19.9029 32.6419 19.3783C32.0983 18.6041 31.3812 17.967 30.5475 17.5175C29.7137 17.0681 28.7864 16.8187 27.8391 16.7891C25.8184 16.5776 23.8593 17.9949 22.8296 17.9949C21.7799 17.9949 20.1945 16.8101 18.4872 16.8451C17.3829 16.8807 16.3067 17.2009 15.3634 17.7746C14.4201 18.3483 13.6419 19.1558 13.1047 20.1186C10.7774 24.1367 12.5133 30.0419 14.7427 33.2899C15.8581 34.8803 17.1617 36.6568 18.8674 36.5938C20.5365 36.5248 21.1599 35.5325 23.1747 35.5325C25.1708 35.5325 25.7557 36.5938 27.496 36.5538C29.2871 36.5248 30.4156 34.9563 31.4918 33.3508C32.2933 32.2176 32.9099 30.9651 33.3191 29.6398C32.2785 29.2009 31.3905 28.4663 30.7658 27.5275C30.1411 26.5888 29.8074 25.4874 29.8061 24.3608Z" fill="black"/>
<path d="M26.5191 14.6535C27.4957 13.4844 27.9768 11.9818 27.8603 10.4648C26.3683 10.621 24.9901 11.3321 24.0004 12.4563C23.5164 13.0055 23.1458 13.6444 22.9097 14.3365C22.6735 15.0287 22.5764 15.7604 22.6241 16.49C23.3703 16.4976 24.1086 16.3363 24.7833 16.0182C25.458 15.7001 26.0515 15.2335 26.5191 14.6535Z" fill="black"/>
<path d="M50.9052 32.5672H45.2092L43.8413 36.595H41.4287L46.8239 21.6934H49.3305L54.7257 36.595H52.2719L50.9052 32.5672ZM45.7991 30.7086H50.3142L48.0884 24.1719H48.0261L45.7991 30.7086Z" fill="black"/>
<path d="M66.3775 31.1637C66.3775 34.5399 64.5654 36.709 61.8308 36.709C61.1381 36.7452 60.4491 36.5861 59.8429 36.2499C59.2366 35.9137 58.7376 35.4141 58.4028 34.8082H58.3511V40.1895H56.1147V25.7309H58.2794V27.5379H58.3206C58.6707 26.935 59.1782 26.438 59.7891 26.0997C60.3999 25.7615 61.0913 25.5948 61.7897 25.6172C64.5548 25.6172 66.3775 27.7969 66.3775 31.1637ZM64.0789 31.1637C64.0789 28.9641 62.939 27.518 61.1997 27.518C59.491 27.518 58.3417 28.9946 58.3417 31.1637C58.3417 33.3528 59.491 34.8188 61.1997 34.8188C62.939 34.8188 64.0789 33.3833 64.0789 31.1637Z" fill="black"/>
<path d="M78.3687 31.1637C78.3687 34.5399 76.5566 36.709 73.822 36.709C73.1293 36.7452 72.4403 36.586 71.8341 36.2499C71.2278 35.9137 70.7288 35.4141 70.394 34.8082H70.3423V40.1895H68.106V25.7309H70.2706V27.5379H70.3117C70.6619 26.935 71.1694 26.438 71.7802 26.0997C72.3911 25.7615 73.0825 25.5948 73.7808 25.6172C76.546 25.6172 78.3687 27.7969 78.3687 31.1637ZM76.0701 31.1637C76.0701 28.9641 74.9302 27.518 73.1909 27.518C71.4822 27.518 70.3329 28.9946 70.3329 31.1637C70.3329 33.3528 71.4822 34.8188 73.1909 34.8188C74.9302 34.8188 76.0701 33.3833 76.0701 31.1637Z" fill="black"/>
<path d="M86.2941 32.4424C86.4598 33.9202 87.8994 34.8904 89.8666 34.8904C91.7516 34.8904 93.1077 33.9201 93.1077 32.5877C93.1077 31.431 92.2898 30.7385 90.3532 30.2639L88.4165 29.7986C85.6725 29.1377 84.3986 27.858 84.3986 25.7814C84.3986 23.2103 86.6455 21.4443 89.8361 21.4443C92.9937 21.4443 95.1584 23.2103 95.2313 25.7814H92.9738C92.8386 24.2943 91.6059 23.3967 89.8043 23.3967C88.0028 23.3967 86.7701 24.3049 86.7701 25.6268C86.7701 26.6803 87.5574 27.3002 89.4835 27.7748L91.1299 28.1779C94.1959 28.9009 95.4698 30.1291 95.4698 32.3087C95.4698 35.0966 93.2429 36.8427 89.7009 36.8427C86.3869 36.8427 84.1494 35.1376 84.0049 32.4423L86.2941 32.4424Z" fill="black"/>
<path d="M100.296 23.1592V25.7303H102.368V27.4963H100.296V33.4857C100.296 34.4162 100.711 34.8498 101.622 34.8498C101.868 34.8455 102.113 34.8283 102.357 34.7982V36.5537C101.948 36.63 101.532 36.6645 101.115 36.6568C98.9095 36.6568 98.0492 35.8306 98.0492 33.7236V27.4963H96.4651V25.7303H98.0492V23.1592H100.296Z" fill="black"/>
<path d="M103.568 31.1641C103.568 27.7457 105.587 25.5977 108.735 25.5977C111.894 25.5977 113.903 27.7457 113.903 31.1641C113.903 34.5918 111.904 36.7305 108.735 36.7305C105.567 36.7305 103.568 34.5918 103.568 31.1641ZM111.625 31.1641C111.625 28.8192 110.547 27.4352 108.735 27.4352C106.923 27.4352 105.847 28.8297 105.847 31.1641C105.847 33.5184 106.923 34.8918 108.735 34.8918C110.547 34.8918 111.625 33.5184 111.625 31.1641Z" fill="black"/>
<path d="M115.747 25.7308H117.88V27.58H117.932C118.076 27.0025 118.415 26.4921 118.893 26.1346C119.37 25.7771 119.956 25.5944 120.552 25.6171C120.81 25.6162 121.067 25.6441 121.319 25.7003V27.7863C120.993 27.6871 120.654 27.6416 120.314 27.6515C119.989 27.6384 119.665 27.6955 119.364 27.8189C119.064 27.9424 118.793 28.1293 118.572 28.3668C118.351 28.6042 118.183 28.8867 118.082 29.1947C117.98 29.5027 117.947 29.829 117.983 30.1511V36.5953H115.747V25.7308Z" fill="black"/>
<path d="M131.63 33.4047C131.329 35.377 129.403 36.7305 126.938 36.7305C123.769 36.7305 121.802 34.6129 121.802 31.2156C121.802 27.8078 123.78 25.5977 126.844 25.5977C129.859 25.5977 131.754 27.6625 131.754 30.9567V31.7207H124.059V31.8555C124.024 32.2553 124.074 32.6581 124.207 33.0371C124.339 33.4161 124.551 33.7627 124.828 34.0537C125.105 34.3448 125.442 34.5737 125.814 34.7253C126.187 34.8768 126.588 34.9476 126.99 34.9328C127.519 34.9822 128.049 34.8601 128.502 34.5848C128.956 34.3095 129.308 33.8956 129.506 33.4047H131.63ZM124.07 30.1621H129.517C129.537 29.8026 129.482 29.4428 129.356 29.1054C129.23 28.7679 129.036 28.4601 128.785 28.2012C128.534 27.9422 128.232 27.7378 127.898 27.6008C127.564 27.4637 127.205 27.397 126.844 27.4047C126.48 27.4025 126.119 27.4723 125.782 27.61C125.445 27.7477 125.139 27.9506 124.881 28.2069C124.623 28.4633 124.419 28.7681 124.279 29.1036C124.14 29.4392 124.069 29.799 124.07 30.1621Z" fill="black"/>
<path d="M44.2098 13.5049H45.1699C45.3352 13.5254 45.503 13.5115 45.6626 13.4642C45.8223 13.4169 45.9703 13.3371 46.0975 13.2298C46.2247 13.1226 46.3283 12.9903 46.4016 12.8412C46.475 12.692 46.5165 12.5294 46.5237 12.3635C46.5237 11.7031 46.0255 11.2765 45.1805 11.2765C45.0112 11.253 44.8388 11.2634 44.6736 11.3074C44.5084 11.3513 44.3537 11.4278 44.2187 11.5323C44.0836 11.6369 43.9709 11.7673 43.8872 11.916C43.8036 12.0647 43.7506 12.2286 43.7315 12.398H42.6774C42.6955 12.0905 42.777 11.7899 42.9166 11.5151C43.0563 11.2403 43.2512 10.9971 43.4892 10.8007C43.7272 10.6042 44.0032 10.4587 44.3001 10.3733C44.5969 10.2878 44.9082 10.2642 45.2146 10.3039C46.6283 10.3039 47.6237 11.0931 47.6237 12.2293C47.627 12.6099 47.4993 12.9801 47.2619 13.2782C47.0245 13.5762 46.6918 13.7841 46.3193 13.867V13.9513C46.7609 13.9709 47.1768 14.164 47.4761 14.4884C47.7754 14.8129 47.9336 15.2423 47.9163 15.6828C47.8836 15.9995 47.7879 16.3064 47.6347 16.5857C47.4815 16.865 47.2739 17.111 47.0242 17.3093C46.7744 17.5075 46.4874 17.6541 46.1801 17.7403C45.8729 17.8266 45.5514 17.8508 45.2346 17.8115C44.9171 17.8547 44.5942 17.8336 44.285 17.7497C43.9759 17.6657 43.6869 17.5206 43.4352 17.3229C43.1835 17.1251 42.9743 16.8789 42.8201 16.5989C42.6659 16.3188 42.5698 16.0106 42.5376 15.6928H43.6082C43.6728 16.3777 44.3039 16.8196 45.2346 16.8196C46.1653 16.8196 46.7729 16.3233 46.7729 15.6237C46.7729 14.9141 46.2006 14.477 45.2005 14.477H44.2098V13.5049Z" fill="black"/>
<path d="M49.1326 16.1096C49.1326 15.1369 49.86 14.5762 51.148 14.4965L52.6158 14.4121V13.9457C52.6158 13.375 52.2385 13.0527 51.5064 13.0527C50.9094 13.0527 50.4969 13.2713 50.3771 13.6533H49.3417C49.451 12.7252 50.3277 12.1299 51.5569 12.1299C52.9154 12.1299 53.6816 12.8043 53.6816 13.9457V17.6377H52.651V16.8783H52.5664C52.3947 17.1507 52.1535 17.3728 51.8676 17.5218C51.5816 17.6709 51.2611 17.7416 50.9388 17.7267C50.7113 17.7503 50.4814 17.7261 50.2639 17.6557C50.0464 17.5852 49.8461 17.4701 49.6759 17.3178C49.5057 17.1654 49.3694 16.9792 49.2759 16.7711C49.1823 16.563 49.1335 16.3376 49.1326 16.1096ZM52.6158 15.6478V15.1961L51.2925 15.2805C50.5462 15.3303 50.2078 15.5834 50.2078 16.0598C50.2078 16.5461 50.6308 16.8291 51.2126 16.8291C51.3831 16.8463 51.5552 16.8291 51.7189 16.7786C51.8826 16.7281 52.0344 16.6453 52.1653 16.5351C52.2962 16.4249 52.4036 16.2896 52.4809 16.1371C52.5583 15.9847 52.6042 15.8183 52.6158 15.6478Z" fill="black"/>
<path d="M56.5196 13.132V17.6379H55.4502V12.2344H59.0181V13.132H56.5196Z" fill="black"/>
<path d="M65.499 14.9332C65.499 16.6499 64.6282 17.7263 63.2603 17.7263C62.9245 17.7492 62.5892 17.6759 62.2937 17.5151C61.9983 17.3543 61.7551 17.1127 61.5927 16.8187H61.5081V19.4337H60.4387V12.2337H61.4682V13.1267H61.5481C61.7133 12.8225 61.9597 12.5697 62.26 12.3963C62.5603 12.2229 62.9028 12.1356 63.2497 12.1441C64.6282 12.1441 65.499 13.2158 65.499 14.9332ZM64.399 14.9332C64.399 13.7917 63.8573 13.1021 62.9512 13.1021C62.0511 13.1021 61.4882 13.8064 61.4882 14.9378C61.4882 16.064 62.0511 16.7689 62.9465 16.7689C63.8573 16.7689 64.399 16.0792 64.399 14.9332Z" fill="black"/>
<path d="M66.9234 19.5733V18.6551C67.0392 18.6698 67.1558 18.6764 67.2724 18.675C67.5003 18.6918 67.7263 18.6242 67.9072 18.485C68.0881 18.3458 68.211 18.145 68.2525 17.9209L68.3324 17.6578L66.3711 12.2344H67.5357L68.8942 16.5264H68.9788L70.3326 12.2344H71.4666L69.4465 17.8611C68.9835 19.176 68.4712 19.5979 67.3665 19.5979C67.2772 19.5979 67.0233 19.5879 66.9234 19.5733Z" fill="black"/>
<path d="M72.2998 16.1044H73.3645C73.4691 16.5808 73.9169 16.8292 74.5432 16.8292C75.2554 16.8292 75.6925 16.5163 75.6925 16.03C75.6925 15.5091 75.3 15.2607 74.5432 15.2607H73.7323V14.4322H74.5291C75.1754 14.4322 75.5045 14.1843 75.5045 13.7326C75.5045 13.3359 75.186 13.033 74.5291 13.033C73.9309 13.033 73.4938 13.2861 73.4244 13.7127H72.3938C72.4709 13.2225 72.7378 12.7821 73.1371 12.4861C73.5364 12.1902 74.0362 12.0623 74.5291 12.13C75.8171 12.13 76.5539 12.7107 76.5539 13.6236C76.5599 13.8778 76.4782 14.1264 76.3225 14.3277C76.1668 14.5291 75.9465 14.6711 75.6984 14.7299V14.8142C75.9937 14.8522 76.2648 14.997 76.4602 15.2211C76.6556 15.4452 76.7617 15.7331 76.7584 16.03C76.7584 17.0572 75.8817 17.7369 74.5432 17.7369C73.3598 17.7368 72.3985 17.196 72.2998 16.1044Z" fill="black"/>
<path d="M78.2986 17.6379V12.2344H79.3586V15.951H79.4432L81.9404 12.2344H83.0004V17.6379H81.9404V13.9014H81.8605L79.3586 17.6379H78.2986Z" fill="black"/>
<path d="M88.8396 13.132H87.1332V17.6378H86.0626V13.132H84.3562V12.2344H88.8396V13.132Z" fill="black"/>
<path d="M94.6002 16.1788C94.4545 16.6726 94.1394 17.0997 93.7101 17.3855C93.2807 17.6712 92.7643 17.7974 92.2511 17.7421C91.8941 17.7515 91.5393 17.6833 91.2114 17.5423C90.8835 17.4012 90.5902 17.1907 90.3521 16.9254C90.1139 16.66 89.9365 16.3461 89.8322 16.0055C89.7279 15.665 89.6991 15.3058 89.748 14.953C89.7004 14.5992 89.7297 14.2393 89.8338 13.8976C89.9378 13.556 90.1143 13.2407 90.3512 12.973C90.5881 12.7053 90.8799 12.4915 91.2069 12.3461C91.5339 12.2006 91.8883 12.1269 92.2464 12.13C93.7541 12.13 94.6648 13.1572 94.6648 14.854V15.2261H90.8385V15.2859C90.8216 15.4842 90.8464 15.6839 90.9115 15.8721C90.9766 16.0603 91.0804 16.2328 91.2163 16.3786C91.3522 16.5244 91.5172 16.6402 91.7007 16.7186C91.8841 16.797 92.082 16.8363 92.2816 16.8339C92.5373 16.8643 92.7962 16.8183 93.0255 16.7017C93.2549 16.585 93.4443 16.403 93.5696 16.1788H94.6002ZM90.8385 14.4374H93.5743C93.5878 14.2562 93.5631 14.0741 93.5019 13.9029C93.4407 13.7317 93.3442 13.5752 93.2187 13.4433C93.0932 13.3115 92.9415 13.2073 92.7732 13.1375C92.6049 13.0676 92.4239 13.0336 92.2416 13.0376C92.0566 13.0351 91.873 13.0696 91.7016 13.1391C91.5302 13.2085 91.3745 13.3116 91.2437 13.4421C91.1129 13.5725 91.0096 13.7279 90.94 13.8988C90.8704 14.0698 90.8359 14.2529 90.8385 14.4374Z" fill="black"/>
<path d="M99.134 12.2344H101.577C102.637 12.2344 103.259 12.7699 103.259 13.6084C103.261 13.8744 103.17 14.133 103.004 14.3408C102.837 14.5485 102.604 14.6929 102.343 14.7498V14.8342C102.66 14.8541 102.957 14.9945 103.172 15.2263C103.388 15.4581 103.506 15.7637 103.502 16.0799C103.502 17.0226 102.791 17.6379 101.602 17.6379H99.134V12.2344ZM100.194 13.0529V14.4521H101.254C101.9 14.4521 102.209 14.2043 102.209 13.7473C102.209 13.326 101.94 13.0529 101.373 13.0529H100.194ZM100.194 15.2362V16.8194H101.462C102.094 16.8194 102.433 16.541 102.433 16.0301C102.433 15.4893 102.05 15.2362 101.328 15.2362H100.194Z" fill="black"/>
</g>
<defs>
<clipPath id="clip0_1220_1161">
<rect width="144" height="48" fill="white"/>
</clipPath>
</defs>
</svg>
