<svg width="162" height="48" viewBox="0 0 162 48" fill="none" xmlns="http://www.w3.org/2000/svg">
<g clip-path="url(#clip0_1220_1139)">
<path d="M155.175 0H5.96825C2.67208 0 0 2.68629 0 6V42C0 45.3137 2.67208 48 5.96825 48H155.175C158.471 48 161.143 45.3137 161.143 42V6C161.143 2.68629 158.471 0 155.175 0Z" fill="white"/>
<path d="M155.175 0.96C156.504 0.96 157.779 1.491 158.72 2.43618C159.66 3.38137 160.188 4.66331 160.188 6V42C160.188 43.3367 159.66 44.6186 158.72 45.5638C157.779 46.509 156.504 47.04 155.175 47.04H5.96825C4.63864 47.04 3.36347 46.509 2.42329 45.5638C1.48311 44.6186 0.954921 43.3367 0.954921 42V6C0.954921 4.66331 1.48311 3.38137 2.42329 2.43618C3.36347 1.491 4.63864 0.96 5.96825 0.96H155.175ZM155.175 0H5.96825C4.38537 0 2.86733 0.632141 1.74806 1.75736C0.628796 2.88258 0 4.4087 0 6V42C0 43.5913 0.628796 45.1174 1.74806 46.2426C2.86733 47.3679 4.38537 48 5.96825 48H155.175C156.757 48 158.276 47.3679 159.395 46.2426C160.514 45.1174 161.143 43.5913 161.143 42V6C161.143 4.4087 160.514 2.88258 159.395 1.75736C158.276 0.632141 156.757 0 155.175 0Z" fill="#A6A6A6"/>
<path d="M81.3354 26.0991C80.3297 26.1015 79.3473 26.4036 78.5124 26.9673C77.6775 27.531 77.0276 28.3309 76.6449 29.2659C76.2622 30.2009 76.1639 31.229 76.3625 32.2202C76.561 33.2113 77.0474 34.1211 77.7602 34.8343C78.473 35.5475 79.3802 36.0323 80.367 36.2272C81.3539 36.4221 82.3761 36.3185 83.3043 35.9294C84.2325 35.5403 85.0252 34.8832 85.582 34.0412C86.1387 33.1992 86.4347 32.2102 86.4323 31.1991C86.442 30.5246 86.3167 29.8551 86.0637 29.2303C85.8107 28.6056 85.4352 28.0384 84.9596 27.5625C84.4841 27.0867 83.9181 26.7119 83.2955 26.4605C82.6728 26.2091 82.0063 26.0862 81.3354 26.0991ZM81.3354 34.2951C80.719 34.3385 80.1038 34.1944 79.5699 33.8816C79.0361 33.5688 78.6081 33.1018 78.3417 32.5412C78.0754 31.9807 77.9829 31.3526 78.0763 30.7385C78.1698 30.1244 78.4448 29.5528 78.8657 29.098C79.2866 28.6431 79.8338 28.3261 80.4363 28.188C81.0388 28.05 81.6686 28.0974 82.244 28.324C82.8193 28.5506 83.3136 28.946 83.6624 29.4588C84.0113 29.9715 84.1987 30.5779 84.2002 31.1991C84.2194 31.5927 84.16 31.9862 84.0256 32.3564C83.8911 32.7266 83.6843 33.066 83.4173 33.3545C83.1503 33.6431 82.8285 33.875 82.471 34.0365C82.1134 34.198 81.7273 34.286 81.3354 34.2951ZM70.2106 26.0991C69.2049 26.1015 68.2224 26.4036 67.3875 26.9673C66.5526 27.531 65.9028 28.3309 65.5201 29.2659C65.1374 30.2009 65.0391 31.229 65.2376 32.2202C65.4361 33.2113 65.9226 34.1211 66.6354 34.8343C67.3482 35.5475 68.2554 36.0323 69.2422 36.2272C70.2291 36.4221 71.2512 36.3185 72.1795 35.9294C73.1077 35.5403 73.9003 34.8832 74.4571 34.0412C75.0139 33.1992 75.3098 32.2102 75.3075 31.1991C75.3172 30.5246 75.1918 29.8551 74.9388 29.2303C74.6858 28.6056 74.3104 28.0384 73.8348 27.5625C73.3592 27.0867 72.7933 26.7119 72.1707 26.4605C71.548 26.2091 70.8814 26.0862 70.2106 26.0991ZM70.2106 34.2951C69.5942 34.3385 68.979 34.1944 68.4451 33.8816C67.9112 33.5688 67.4833 33.1018 67.2169 32.5412C66.9506 31.9807 66.8581 31.3526 66.9515 30.7385C67.045 30.1244 67.32 29.5528 67.7409 29.098C68.1618 28.6431 68.709 28.3261 69.3115 28.188C69.914 28.05 70.5438 28.0974 71.1192 28.324C71.6945 28.5506 72.1887 28.946 72.5376 29.4588C72.8865 29.9715 73.0738 30.5779 73.0753 31.1991C73.0946 31.5927 73.0352 31.9862 72.9007 32.3564C72.7663 32.7266 72.5595 33.066 72.2925 33.3545C72.0255 33.6431 71.7037 33.875 71.3462 34.0365C70.9886 34.198 70.6025 34.286 70.2106 34.2951ZM56.9849 27.6711V29.8311H62.1415C62.0606 30.8485 61.64 31.8085 60.9478 32.5551C60.4306 33.0849 59.8084 33.4997 59.1217 33.7725C58.4349 34.0454 57.6988 34.1703 56.9611 34.1391C55.4415 34.1391 53.9842 33.5323 52.9097 32.452C51.8352 31.3718 51.2315 29.9068 51.2315 28.3791C51.2315 26.8515 51.8352 25.3864 52.9097 24.3062C53.9842 23.226 55.4415 22.6191 56.9611 22.6191C58.4178 22.5973 59.8245 23.1535 60.8762 24.1671L62.3922 22.6431C61.6807 21.9357 60.836 21.3782 59.9075 21.0032C58.979 20.6281 57.9854 20.4432 56.9849 20.4591C55.9238 20.4176 54.8652 20.5919 53.8726 20.9715C52.8801 21.3511 51.9739 21.9282 51.2086 22.6683C50.4432 23.4084 49.8343 24.2962 49.4184 25.2785C49.0024 26.2609 48.7881 27.3175 48.7881 28.3851C48.7881 29.4527 49.0024 30.5093 49.4184 31.4917C49.8343 32.474 50.4432 33.3618 51.2086 34.1019C51.9739 34.842 52.8801 35.4191 53.8726 35.7987C54.8652 36.1784 55.9238 36.3526 56.9849 36.3111C58.006 36.3521 59.0241 36.1755 59.9725 35.7929C60.9209 35.4103 61.778 34.8303 62.4877 34.0911C63.7411 32.7068 64.409 30.8861 64.3498 29.0151C64.354 28.5648 64.3181 28.115 64.2423 27.6711H56.9849ZM111.069 29.3511C110.758 28.4304 110.176 27.6265 109.4 27.0457C108.624 26.465 107.691 26.1349 106.724 26.0991C106.071 26.0978 105.425 26.2312 104.825 26.491C104.226 26.7507 103.686 27.1314 103.238 27.6094C102.791 28.0873 102.445 28.6525 102.224 29.27C102.002 29.8874 101.909 30.544 101.95 31.1991C101.939 32.2945 102.282 33.3639 102.926 34.2474C103.57 35.131 104.482 35.7813 105.524 36.1013C106.566 36.4213 107.683 36.3937 108.708 36.0228C109.734 35.6518 110.612 34.9573 111.212 34.0431L109.482 32.8431C109.224 33.2754 108.858 33.6325 108.42 33.8787C107.982 34.125 107.488 34.252 106.987 34.2471C106.469 34.2686 105.958 34.1322 105.519 33.8559C105.08 33.5797 104.735 33.1764 104.528 32.6991L111.32 29.8791L111.069 29.3511ZM104.146 31.0551C104.122 30.6824 104.172 30.3085 104.293 29.9555C104.414 29.6024 104.605 29.2772 104.852 28.9989C105.1 28.7207 105.401 28.4949 105.737 28.3349C106.072 28.1749 106.437 28.0839 106.808 28.0671C107.192 28.0435 107.575 28.1345 107.909 28.3288C108.242 28.523 108.511 28.8119 108.682 29.1591L104.146 31.0551ZM98.6314 35.9991H100.863V20.9991H98.6314V35.9991ZM94.9788 27.2391H94.8953C94.5618 26.8573 94.1503 26.5525 93.6888 26.3454C93.2274 26.1383 92.7268 26.0338 92.2215 26.0391C90.9171 26.1027 89.687 26.6684 88.7861 27.619C87.8853 28.5696 87.3828 29.8322 87.3828 31.1451C87.3828 32.458 87.8853 33.7206 88.7861 34.6712C89.687 35.6218 90.9171 36.1875 92.2215 36.2511C92.7276 36.2613 93.2296 36.159 93.6918 35.9516C94.154 35.7442 94.565 35.4367 94.8953 35.0511H94.9788V35.7831C94.9788 37.7391 93.9404 38.7831 92.2692 38.7831C91.711 38.7708 91.169 38.592 90.7121 38.2693C90.2551 37.9467 89.9039 37.4948 89.7029 36.9711L87.7692 37.7751C88.1267 38.6778 88.7483 39.4502 89.5518 39.9901C90.3553 40.5301 91.3029 40.8122 92.2692 40.7991C94.8833 40.7991 97.0438 39.2511 97.0438 35.4831V26.3991H94.9788V27.2391ZM92.4125 34.2951C91.6304 34.2461 90.8963 33.8992 90.3598 33.3251C89.8232 32.751 89.5245 31.9929 89.5245 31.2051C89.5245 30.4174 89.8232 29.6592 90.3598 29.0851C90.8963 28.511 91.6304 28.1641 92.4125 28.1151C92.7947 28.1317 93.1698 28.2254 93.5153 28.3907C93.8607 28.5559 94.1696 28.7894 94.4235 29.0771C94.6775 29.3649 94.8712 29.701 94.9933 30.0655C95.1153 30.4301 95.1632 30.8156 95.134 31.1991C95.1666 31.5839 95.1212 31.9714 95.0005 32.3381C94.8799 32.7048 94.6865 33.043 94.4321 33.3325C94.1777 33.6219 93.8675 33.8564 93.5204 34.0219C93.1733 34.1873 92.7964 34.2803 92.4125 34.2951ZM121.526 20.9991H116.178V35.9991H118.41V30.3111H121.526C122.162 30.3571 122.8 30.2708 123.402 30.0576C124.003 29.8444 124.555 29.5089 125.022 29.0721C125.489 28.6353 125.861 28.1064 126.116 27.5185C126.37 26.9306 126.502 26.2963 126.502 25.6551C126.502 25.0139 126.37 24.3796 126.116 23.7917C125.861 23.2038 125.489 22.675 125.022 22.2381C124.555 21.8013 124.003 21.4658 123.402 21.2526C122.8 21.0395 122.162 20.9532 121.526 20.9991ZM121.526 28.1991H118.41V23.0871H121.573C121.909 23.0871 122.241 23.1535 122.551 23.2826C122.861 23.4116 123.142 23.6008 123.38 23.8393C123.617 24.0777 123.805 24.3608 123.933 24.6724C124.062 24.9839 124.128 25.3179 124.128 25.6551C124.128 25.9923 124.062 26.3263 123.933 26.6378C123.805 26.9494 123.617 27.2325 123.38 27.471C123.142 27.7094 122.861 27.8986 122.551 28.0276C122.241 28.1567 121.909 28.2231 121.573 28.2231L121.526 28.1991ZM135.3 26.0511C134.487 26.0007 133.678 26.191 132.971 26.5983C132.265 27.0057 131.693 27.6123 131.325 28.3431L133.295 29.1711C133.494 28.8104 133.793 28.5153 134.155 28.3215C134.517 28.1278 134.927 28.0436 135.336 28.0791C135.619 28.0458 135.907 28.0696 136.181 28.1491C136.455 28.2286 136.71 28.3621 136.933 28.542C137.155 28.7218 137.339 28.9443 137.475 29.1966C137.611 29.4488 137.695 29.7257 137.723 30.0111V30.1551C137.006 29.7758 136.207 29.5781 135.396 29.5791C133.271 29.5791 131.099 30.7791 131.099 32.9631C131.12 33.4273 131.233 33.8826 131.433 34.3018C131.632 34.721 131.913 35.0956 132.26 35.4034C132.606 35.7113 133.01 35.946 133.448 36.0937C133.887 36.2413 134.35 36.299 134.811 36.2631C135.371 36.2943 135.929 36.1751 136.428 35.9178C136.928 35.6606 137.35 35.2745 137.652 34.7991H137.723V35.9991H139.872V30.2271C139.872 27.5991 137.89 26.0751 135.348 26.0751L135.3 26.0511ZM135.026 34.2711C134.298 34.2711 133.283 33.8991 133.283 32.9991C133.283 31.7991 134.548 31.3911 135.67 31.3911C136.379 31.3735 137.08 31.5476 137.699 31.8951C137.625 32.5468 137.317 33.1491 136.834 33.5904C136.351 34.0317 135.726 34.282 135.073 34.2951L135.026 34.2711ZM147.702 26.3991L145.148 32.9031H145.076L142.426 26.3991H140.039L144.014 35.4951L141.746 40.5471H144.074L150.185 26.3991H147.702ZM127.649 35.9991H129.869V20.9991H127.649V35.9991Z" fill="black"/>
<path d="M12.4617 9.04884C12.0683 9.51638 11.8676 10.1174 11.9006 10.7289V37.2729C11.86 37.8853 12.0617 38.4891 12.4617 38.9529L12.5452 39.0489L27.3345 24.1809V23.8209L12.5452 8.96484L12.4617 9.04884Z" fill="url(#paint0_linear_1220_1139)"/>
<path d="M32.2284 29.1363L27.3345 24.1803V23.8203L32.2284 18.8643L32.3359 18.9363L38.1967 22.2723C39.8678 23.2203 39.8678 24.7803 38.1967 25.7403L32.3597 29.0763L32.2284 29.1363Z" fill="url(#paint1_linear_1220_1139)"/>
<path d="M32.3718 29.065L27.3346 24.001L12.4617 38.953C12.799 39.2548 13.2307 39.4285 13.682 39.4438C14.1333 39.4591 14.5757 39.3152 14.9325 39.037L32.3718 29.065Z" fill="url(#paint2_linear_1220_1139)"/>
<path d="M32.3718 18.9358L14.9325 8.97577C14.578 8.69366 14.136 8.54624 13.6841 8.55941C13.2321 8.57257 12.7993 8.7455 12.4617 9.04777L27.3346 23.9998L32.3718 18.9358Z" fill="url(#paint3_linear_1220_1139)"/>
<path opacity="0.2" d="M32.2285 28.9561L14.9325 38.8561C14.5887 39.1169 14.1696 39.2581 13.7389 39.2581C13.3081 39.2581 12.8891 39.1169 12.5452 38.8561L12.4617 38.9401L12.5452 39.0361C12.8891 39.2969 13.3081 39.4381 13.7389 39.4381C14.1696 39.4381 14.5887 39.2969 14.9325 39.0361L32.3718 29.0641L32.2285 28.9561Z" fill="white"/>
<path opacity="0.12" d="M12.4617 38.7838C12.0783 38.3078 11.8904 37.7025 11.9365 37.0918V37.2718C11.8959 37.8843 12.0976 38.488 12.4976 38.9518L12.5811 38.8678L12.4617 38.7838Z" fill="white"/>
<path opacity="0.12" d="M38.1968 25.561L32.2285 28.957L32.3359 29.065L38.1968 25.729C38.5427 25.5819 38.8428 25.3438 39.0655 25.0397C39.2882 24.7356 39.4252 24.3768 39.462 24.001C39.3874 24.3425 39.234 24.6616 39.0143 24.9325C38.7945 25.2035 38.5145 25.4188 38.1968 25.561Z" fill="white"/>
<path opacity="0.25" d="M14.9327 9.14378L38.197 22.4398C38.5147 22.582 38.7947 22.7973 39.0145 23.0683C39.2342 23.3392 39.3876 23.6583 39.4623 23.9998C39.4254 23.624 39.2884 23.2652 39.0657 22.9611C38.843 22.657 38.5429 22.4188 38.197 22.2718L14.9327 8.97578C13.2736 8.01578 11.9009 8.80778 11.9009 10.7278V10.9078C11.9367 8.98778 13.2736 8.19578 14.9327 9.14378Z" fill="black"/>
<path d="M50.2647 17.1234H49.3933V14.7234H50.1334C50.4663 14.36 50.7167 13.9282 50.8672 13.4578C51.0176 12.9874 51.0646 12.4898 51.0047 11.9994V8.39941H55.7793V14.7114H56.5791V17.1114H55.6958V15.5994H50.2647V17.1234ZM51.9238 11.9994C51.9771 12.9633 51.74 13.921 51.2434 14.7474H54.8244V9.28741H51.9238V11.9994Z" fill="black" stroke="black" stroke-width="0.411304" stroke-miterlimit="10"/>
<path d="M63.7527 14.6643C63.409 15.0108 63.0006 15.2857 62.551 15.4733C62.1014 15.6609 61.6194 15.7574 61.1326 15.7574C60.6459 15.7574 60.1639 15.6609 59.7143 15.4733C59.2647 15.2857 58.8563 15.0108 58.5126 14.6643C57.8297 13.9473 57.4485 12.993 57.4485 12.0003C57.4485 11.0076 57.8297 10.0533 58.5126 9.33629C58.8563 8.98979 59.2647 8.71488 59.7143 8.5273C60.1639 8.33972 60.6459 8.24316 61.1326 8.24316C61.6194 8.24316 62.1014 8.33972 62.551 8.5273C63.0006 8.71488 63.409 8.98979 63.7527 9.33629C64.0975 9.68669 64.3692 10.1029 64.5516 10.5604C64.7341 11.0179 64.8236 11.5075 64.8151 12.0003C64.8292 12.4938 64.7421 12.985 64.5594 13.4433C64.3766 13.9016 64.102 14.3172 63.7527 14.6643ZM59.181 14.0643C59.4325 14.3269 59.735 14.5348 60.0697 14.6752C60.4043 14.8155 60.7641 14.8853 61.1267 14.8803C61.4896 14.8875 61.85 14.8187 62.185 14.6782C62.5199 14.5377 62.8221 14.3286 63.0723 14.0643C63.5874 13.5016 63.8733 12.7649 63.8733 12.0003C63.8733 11.2357 63.5874 10.4989 63.0723 9.93629C62.8221 9.67194 62.5199 9.46286 62.185 9.32237C61.85 9.18188 61.4896 9.11306 61.1267 9.12029C60.7641 9.11524 60.4043 9.18505 60.0697 9.32541C59.735 9.46577 59.4325 9.67369 59.181 9.93629C58.6736 10.5027 58.3927 11.238 58.3927 12.0003C58.3927 12.7626 58.6736 13.4979 59.181 14.0643Z" fill="black" stroke="black" stroke-width="0.411304" stroke-miterlimit="10"/>
<path d="M69.4466 15.7557C68.9636 15.7633 68.4841 15.6726 68.0369 15.4891C67.5897 15.3055 67.1841 15.0329 66.8444 14.6877C66.1557 13.9641 65.7712 13.0012 65.7712 11.9997C65.7712 10.9982 66.1557 10.0353 66.8444 9.31167C67.1896 8.96048 67.603 8.68444 68.0589 8.50071C68.5148 8.31698 69.0034 8.22949 69.4943 8.24367C69.994 8.22946 70.4904 8.33018 70.9455 8.53814C71.4006 8.74611 71.8024 9.05583 72.1203 9.44367L71.4877 10.0677C71.2532 9.76457 70.9498 9.52247 70.6029 9.36169C70.2561 9.2009 69.8759 9.12614 69.4943 9.14367C69.1269 9.13425 68.7615 9.20075 68.4206 9.33904C68.0798 9.47734 67.7708 9.68449 67.5129 9.94767C66.9987 10.5155 66.7137 11.2558 66.7137 12.0237C66.7137 12.7916 66.9987 13.5318 67.5129 14.0997C67.7708 14.3629 68.0798 14.57 68.4206 14.7083C68.7615 14.8466 69.1269 14.9131 69.4943 14.9037C69.9045 14.892 70.3071 14.7903 70.6741 14.6058C71.0411 14.4214 71.3636 14.1585 71.619 13.8357L72.2636 14.4717C71.9366 14.8656 71.5296 15.1848 71.0699 15.4077C70.5621 15.6462 70.007 15.7652 69.4466 15.7557Z" fill="black" stroke="black" stroke-width="0.411304" stroke-miterlimit="10"/>
<path d="M76.0118 15.5994H75.0927V9.28741H73.0874V8.39941H78.0052V9.28741H76.0118V15.5994Z" fill="black" stroke="black" stroke-width="0.411304" stroke-miterlimit="10"/>
<path d="M84.3314 8.39941L81.6218 14.4714C81.5561 14.7149 81.4385 14.941 81.2772 15.1343C81.1159 15.3275 80.9148 15.4831 80.6877 15.5904C80.4606 15.6977 80.213 15.7541 79.9621 15.7557C79.7112 15.7572 79.4629 15.7039 79.2345 15.5994L79.4733 14.7474C79.6193 14.8299 79.7833 14.8752 79.9507 14.8794C80.1274 14.8883 80.3025 14.8422 80.4521 14.7474C80.5971 14.6261 80.7081 14.469 80.7744 14.2914L81.037 13.7154L78.6497 8.39941H79.7359L81.5025 12.5274L83.2452 8.39941H84.3314Z" fill="black" stroke="black" stroke-width="0.411304" stroke-miterlimit="10"/>
<path d="M85.3701 15.5994V8.39941H90.5505V15.5994H89.6314V9.28741H86.2892V15.5994H85.3701Z" fill="black" stroke="black" stroke-width="0.411304" stroke-miterlimit="10"/>
<path d="M92.1858 15.5994V8.39941H93.1049V11.4834H96.6858V8.39941H97.6169V15.5994H96.6858V12.3474H93.1049V15.5994H92.1858Z" fill="black" stroke="black" stroke-width="0.411304" stroke-miterlimit="10"/>
<path d="M105.113 14.6643C104.768 15.0112 104.359 15.2863 103.908 15.4741C103.457 15.6618 102.974 15.7584 102.487 15.7584C101.999 15.7584 101.516 15.6618 101.065 15.4741C100.615 15.2863 100.205 15.0112 99.8607 14.6643C99.1778 13.9473 98.7966 12.993 98.7966 12.0003C98.7966 11.0076 99.1778 10.0533 99.8607 9.33629C100.204 8.98979 100.613 8.71488 101.062 8.5273C101.512 8.33972 101.994 8.24316 102.481 8.24316C102.968 8.24316 103.45 8.33972 103.899 8.5273C104.349 8.71488 104.757 8.98979 105.101 9.33629C105.778 10.0561 106.156 11.0094 106.156 12.0003C106.156 12.9912 105.778 13.9445 105.101 14.6643H105.113ZM100.541 14.0643C100.791 14.3286 101.093 14.5377 101.428 14.6782C101.763 14.8187 102.124 14.8875 102.487 14.8803C102.849 14.8854 103.209 14.8155 103.544 14.6752C103.878 14.5348 104.181 14.3269 104.432 14.0643C104.94 13.4979 105.221 12.7626 105.221 12.0003C105.221 11.238 104.94 10.5027 104.432 9.93629C104.181 9.67369 103.878 9.46577 103.544 9.32541C103.209 9.18505 102.849 9.11524 102.487 9.12029C102.124 9.11306 101.763 9.18188 101.428 9.32237C101.093 9.46286 100.791 9.67194 100.541 9.93629C100.026 10.4989 99.7402 11.2357 99.7402 12.0003C99.7402 12.7649 100.026 13.5016 100.541 14.0643Z" fill="black" stroke="black" stroke-width="0.411304" stroke-miterlimit="10"/>
<path d="M109.923 15.5995V8.39952H112.513C113.05 8.3941 113.57 8.59103 113.97 8.95152C114.169 9.12554 114.328 9.34149 114.435 9.58411C114.543 9.82673 114.596 10.0901 114.59 10.3555C114.593 10.6788 114.502 10.9958 114.328 11.2675C114.152 11.5252 113.908 11.7287 113.624 11.8555C113.968 11.974 114.271 12.1908 114.495 12.4795C114.714 12.7736 114.832 13.1319 114.829 13.4995C114.835 13.7761 114.781 14.0507 114.669 14.3038C114.558 14.5568 114.392 14.782 114.185 14.9635C113.77 15.3511 113.223 15.5619 112.657 15.5515L109.923 15.5995ZM110.842 11.4835H112.513C112.67 11.4926 112.826 11.466 112.971 11.4058C113.116 11.3455 113.245 11.2531 113.349 11.1355C113.551 10.9361 113.667 10.6644 113.671 10.3795C113.683 10.0938 113.584 9.81455 113.397 9.59952C113.296 9.48761 113.173 9.39944 113.034 9.34134C112.896 9.28325 112.747 9.25667 112.597 9.26352H110.878L110.842 11.4835ZM110.842 14.7115H112.704C112.866 14.717 113.027 14.6864 113.176 14.6221C113.324 14.5578 113.457 14.4613 113.564 14.3395C113.77 14.1182 113.885 13.8267 113.886 13.5235C113.879 13.2229 113.76 12.9359 113.552 12.7195C113.437 12.598 113.298 12.5022 113.144 12.4381C112.989 12.374 112.823 12.3432 112.657 12.3475H110.842V14.7115Z" fill="black" stroke="black" stroke-width="0.411304" stroke-miterlimit="10"/>
</g>
<defs>
<linearGradient id="paint0_linear_1220_1139" x1="26.0215" y1="10.4529" x2="5.88584" y2="30.482" gradientUnits="userSpaceOnUse">
<stop stop-color="#00A0FF"/>
<stop offset="0.01" stop-color="#00A1FF"/>
<stop offset="0.26" stop-color="#00BEFF"/>
<stop offset="0.51" stop-color="#00D2FF"/>
<stop offset="0.76" stop-color="#00DFFF"/>
<stop offset="1" stop-color="#00E3FF"/>
</linearGradient>
<linearGradient id="paint1_linear_1220_1139" x1="40.3811" y1="24.0003" x2="11.5067" y2="24.0003" gradientUnits="userSpaceOnUse">
<stop stop-color="#FFE000"/>
<stop offset="0.41" stop-color="#FFBD00"/>
<stop offset="0.78" stop-color="#FFA500"/>
<stop offset="1" stop-color="#FF9C00"/>
</linearGradient>
<linearGradient id="paint2_linear_1220_1139" x1="29.6383" y1="26.761" x2="2.32672" y2="53.9161" gradientUnits="userSpaceOnUse">
<stop stop-color="#FF3A44"/>
<stop offset="1" stop-color="#C31162"/>
</linearGradient>
<linearGradient id="paint3_linear_1220_1139" x1="8.71358" y1="0.215764" x2="20.9054" y2="12.3431" gradientUnits="userSpaceOnUse">
<stop stop-color="#32A071"/>
<stop offset="0.07" stop-color="#2DA771"/>
<stop offset="0.48" stop-color="#15CF74"/>
<stop offset="0.8" stop-color="#06E775"/>
<stop offset="1" stop-color="#00F076"/>
</linearGradient>
<clipPath id="clip0_1220_1139">
<rect width="162" height="48" fill="white"/>
</clipPath>
</defs>
</svg>
