<svg width="75" height="75" viewBox="0 0 75 75" fill="none" xmlns="http://www.w3.org/2000/svg">
<path fill-rule="evenodd" clip-rule="evenodd" d="M37.4999 0C16.7893 0 0 16.7894 0 37.5V75H37.4999C58.2107 75 75 58.2106 75 37.5C75 32.6498 74.0792 28.0147 72.4029 23.7599L70.3745 19.4434C63.995 7.85338 51.6646 0 37.4999 0ZM59.1996 19.4434H70.3745L72.4029 23.7599L62.2694 23.9449L59.1996 19.4434ZM65.1837 31.9079C65.5513 33.7275 65.7442 35.6104 65.7442 37.5384C65.7442 53.1596 53.0808 65.823 37.4596 65.823H9.17504V37.5384C9.17504 21.9173 21.8385 9.25393 37.4596 9.25393C46.1982 9.25393 54.0113 13.2167 59.1996 19.4434L62.2694 23.9449H57.2627L44.5783 50.7161L31.3483 23.9449H17.5605V57.8465H25.5236V31.9079H26.4013L39.6961 58.8105H49.5547L62.3015 31.9079H65.1837Z" fill="#F9F9F9"/>
</svg>
