<svg width="105" height="105" viewBox="0 0 105 105" fill="none" xmlns="http://www.w3.org/2000/svg">
<g clip-path="url(#clip0_726_6862)">
<g filter="url(#filter0_d_726_6862)">
<mask id="mask0_726_6862" style="mask-type:luminance" maskUnits="userSpaceOnUse" x="0" y="0" width="105" height="105">
<path d="M80.1616 0.893066H24.8388C11.6139 0.893066 0.893066 11.6139 0.893066 24.8388V80.1616C0.893066 93.3865 11.6139 104.107 24.8388 104.107H80.1616C93.3865 104.107 104.107 93.3865 104.107 80.1616V24.8388C104.107 11.6139 93.3865 0.893066 80.1616 0.893066Z" fill="white"/>
</mask>
<g mask="url(#mask0_726_6862)">
<path d="M80.1616 0.893066H24.8388C11.6139 0.893066 0.893066 11.6139 0.893066 24.8388V80.1616C0.893066 93.3865 11.6139 104.107 24.8388 104.107H80.1616C93.3865 104.107 104.107 93.3865 104.107 80.1616V24.8388C104.107 11.6139 93.3865 0.893066 80.1616 0.893066Z" fill="url(#paint0_linear_726_6862)"/>
<path fill-rule="evenodd" clip-rule="evenodd" d="M52.4627 22.3389C35.7737 22.3389 22.2446 35.8753 22.2446 52.5732V82.8076H52.4627C69.1517 82.8076 82.6808 69.2712 82.6808 52.5732C82.6808 48.6628 81.9388 44.9257 80.588 41.4953L78.9535 38.0151C73.8128 28.6707 63.8768 22.3389 52.4627 22.3389ZM69.9486 38.0151H78.9535L80.588 41.4953L72.4223 41.6444L69.9486 38.0151ZM74.7707 48.0646C75.0669 49.5316 75.2223 51.0498 75.2223 52.6042C75.2223 65.1988 65.0179 75.4087 52.4302 75.4087H29.638V52.6042C29.638 40.0097 39.8424 29.7999 52.4302 29.7999C59.4719 29.7999 65.7678 32.9948 69.9486 38.0151L72.4223 41.6444H68.3878L58.1665 63.2287L47.5056 41.6444H36.3952V68.9776H42.812V48.0646H43.5192L54.2324 69.7549H62.1766L72.4481 48.0646H74.7707Z" fill="url(#paint1_linear_726_6862)"/>
<path d="M96.8748 8.66064V30.4206C94.3864 27.1525 91.5105 23.8546 88.1872 20.5922C83.3864 15.8791 78.6065 11.9428 74.0273 8.66064H96.8748Z" stroke="#FF5151" stroke-width="15.9821"/>
<path d="M94.8676 13.5004L96.0007 14.9823L97.7694 14.3902C97.8685 14.3571 97.9525 14.4689 97.8935 14.5547L96.8337 16.09L97.9435 17.5894C98.006 17.6732 97.9257 17.7878 97.8257 17.758L96.0382 17.2249L94.9551 18.7436C94.8944 18.8285 94.7605 18.7874 94.7578 18.6832L94.7132 16.8185L92.9337 16.2578C92.8346 16.2264 92.8319 16.0865 92.9301 16.0519L94.69 15.4325L94.673 13.5672C94.6721 13.463 94.8042 13.4175 94.8676 13.5004Z" fill="#F5F5F5"/>
<path d="M89.4775 21.762C86.2847 21.762 83.6949 19.1722 83.6949 15.9769C83.6949 12.7874 86.2847 10.1919 89.4775 10.1919C90.665 10.1919 91.7605 10.5572 92.673 11.1754C92.8123 11.2701 92.9721 11.0865 92.8552 10.9648C91.4909 9.54643 89.5605 8.68119 87.4194 8.75429C83.7413 8.87979 80.6965 11.8287 80.4615 15.5013C80.1924 19.7079 83.5233 23.2039 87.6704 23.2039C89.7132 23.2039 91.5489 22.3499 92.8605 20.9844C92.9757 20.8637 92.8159 20.6829 92.6775 20.7766C91.7641 21.3963 90.6668 21.762 89.4775 21.762Z" fill="#F5F5F5"/>
</g>
</g>
</g>
<defs>
<filter id="filter0_d_726_6862" x="0.0386432" y="0.0386432" width="104.923" height="104.923" filterUnits="userSpaceOnUse" color-interpolation-filters="sRGB">
<feFlood flood-opacity="0" result="BackgroundImageFix"/>
<feColorMatrix in="SourceAlpha" type="matrix" values="0 0 0 0 0 0 0 0 0 0 0 0 0 0 0 0 0 0 127 0" result="hardAlpha"/>
<feOffset/>
<feGaussianBlur stdDeviation="0.427212"/>
<feComposite in2="hardAlpha" operator="out"/>
<feColorMatrix type="matrix" values="0 0 0 0 0 0 0 0 0 0 0 0 0 0 0 0 0 0 0.25 0"/>
<feBlend mode="normal" in2="BackgroundImageFix" result="effect1_dropShadow_726_6862"/>
<feBlend mode="normal" in="SourceGraphic" in2="effect1_dropShadow_726_6862" result="shape"/>
</filter>
<linearGradient id="paint0_linear_726_6862" x1="52.5002" y1="0.893066" x2="52.5002" y2="104.107" gradientUnits="userSpaceOnUse">
<stop stop-color="#00C2FF"/>
<stop offset="1" stop-color="#0088B3"/>
</linearGradient>
<linearGradient id="paint1_linear_726_6862" x1="52.4627" y1="22.3389" x2="52.4627" y2="82.8076" gradientUnits="userSpaceOnUse">
<stop stop-color="#F9F9F9"/>
<stop offset="1" stop-color="#E2E2E2"/>
</linearGradient>
<clipPath id="clip0_726_6862">
<rect width="105" height="105" fill="white"/>
</clipPath>
</defs>
</svg>
