<svg width="103" height="104" viewBox="0 0 103 104" fill="none" xmlns="http://www.w3.org/2000/svg">
<rect y="0.5" width="103" height="103" rx="25.4156" fill="#0C9F06"/>
<path d="M15.3831 78.6597V23.2729C21.9876 23.0566 25.9612 23.9675 27.1224 24.45C34.5795 26.028 40.9719 30.1765 43.236 32.0535C46.8501 34.484 50.0017 39.2487 51.1258 41.3272C51.9275 38.9857 54.9806 35.5901 56.4069 34.185C58.3157 31.8817 63.1726 29.0365 65.3625 27.9018C73.5449 23.766 83.1622 23.0926 86.9481 23.2729V78.6597L67.1122 84.387V42.2339H72.1865V78.0552L81.6033 75.2079V28.9516C78.2056 28.6844 72.6054 30.5688 70.2299 31.5445C64.2744 33.886 59.9541 37.7906 58.5384 39.4502C55.9806 41.2063 54.058 46.5658 53.4164 49.0261V55.6115C52.2584 65.7919 44.2912 69.9489 40.4523 70.7549C31.0864 72.9182 24.8636 69.1748 22.923 67.0327L26.5179 63.39C27.4596 64.1917 29.2115 65.0496 29.9697 65.3783V42.2339H34.9963V66.2214C40.7355 66.2214 44.0579 63.5278 45.0017 62.1811C49.8501 56.9254 48.5383 48.9307 47.2764 45.5902C44.9221 39.7874 40.0069 35.8764 37.8436 34.6463C33.1988 31.0068 24.4023 29.2592 20.5847 28.8403V75.2079L29.9697 78.0552V73.5227C30.8096 74.108 33.6707 74.1801 34.9963 74.143V84.387L15.3831 78.6597Z" fill="white"/>
</svg>
